<svg width="1464" height="1005" viewBox="0 0 1464 1005" fill="none" xmlns="http://www.w3.org/2000/svg">
<path d="M1464 0H1V978H1464V0Z" fill="url(#paint0_linear)"/>
<path d="M73.9411 609.193L25.3486 727.181H73.9411H122.534L73.9411 609.193Z" fill="#090F2E"/>
<path d="M73.941 576.627L33.4995 694.616H73.941H114.383L73.941 576.627Z" fill="#090F2E"/>
<path d="M73.9411 544.062L39.2471 662.051H73.9411H108.635L73.9411 544.062Z" fill="#090F2E"/>
<path d="M115.427 628.036L66.835 746.024H115.427H164.02L115.427 628.036Z" fill="#090F2E"/>
<path d="M115.427 595.471L74.9858 713.459H115.427H155.869L115.427 595.471Z" fill="#090F2E"/>
<path d="M115.427 562.906L80.7334 680.894H115.427H150.226L115.427 562.906Z" fill="#090F2E"/>
<path d="M151.062 586.387L102.47 704.376H151.062H199.655L151.062 586.387Z" fill="#090F2E"/>
<path d="M151.062 553.822L110.516 671.811H151.062H191.504L151.062 553.822Z" fill="#090F2E"/>
<path d="M151.062 521.257L116.264 639.245H151.062H185.756L151.062 521.257Z" fill="#090F2E"/>
<path d="M216.375 594.891L167.782 712.88H216.375H264.967L216.375 594.891Z" fill="#090F2E"/>
<path d="M216.375 562.326L175.829 680.314H216.375H256.816L216.375 562.326Z" fill="#090F2E"/>
<path d="M216.375 529.761L181.576 647.749H216.375H251.069L216.375 529.761Z" fill="#090F2E"/>
<path d="M200.804 591.702L152.211 709.691H200.804H249.396L200.804 591.702Z" fill="#090F2E"/>
<path d="M200.804 559.137L160.258 677.125H200.804H241.245L200.804 559.137Z" fill="#090F2E"/>
<path d="M200.804 526.572L166.005 644.56H200.804H235.498L200.804 526.572Z" fill="#090F2E"/>
<path d="M274.163 627.07L225.571 745.058H274.163H322.756L274.163 627.07Z" fill="#090F2E"/>
<path d="M274.163 594.505L233.722 712.493H274.163H314.605L274.163 594.505Z" fill="#090F2E"/>
<path d="M274.163 561.939L239.469 679.928H274.163H308.857L274.163 561.939Z" fill="#090F2E"/>
<path d="M315.232 666.689L266.639 784.678H315.232H363.824L315.232 666.689Z" fill="#090F2E"/>
<path d="M315.232 634.124L274.79 752.112H315.232H355.778L315.232 634.124Z" fill="#090F2E"/>
<path d="M315.232 601.559L280.538 719.547H315.232H350.03L315.232 601.559Z" fill="#090F2E"/>
<path d="M344.178 676.353L295.585 794.341H344.178H392.77L344.178 676.353Z" fill="#090F2E"/>
<path d="M344.178 643.787L303.736 761.776H344.178H384.619L344.178 643.787Z" fill="#090F2E"/>
<path d="M344.178 611.222L309.484 729.21H344.178H378.872L344.178 611.222Z" fill="#090F2E"/>
<path d="M386.71 679.928L338.117 797.916H386.71H435.302L386.71 679.928Z" fill="#090F2E"/>
<path d="M386.71 647.363L346.268 765.351H386.71H427.151L386.71 647.363Z" fill="#090F2E"/>
<path d="M386.71 614.797L351.911 732.786H386.71H421.404L386.71 614.797Z" fill="#090F2E"/>
<path d="M418.791 706.405L370.199 824.393H418.791H467.384L418.791 706.405Z" fill="#090F2E"/>
<path d="M418.791 673.84L378.35 791.828H418.791H459.337L418.791 673.84Z" fill="#090F2E"/>
<path d="M418.791 641.275L384.097 759.263H418.791H453.59L418.791 641.275Z" fill="#090F2E"/>
<path d="M453.59 697.901L404.997 815.89H453.59H502.182L453.59 697.901Z" fill="#090F2E"/>
<path d="M453.589 665.336L413.043 783.325H453.589H494.031L453.589 665.336Z" fill="#090F2E"/>
<path d="M453.59 632.771L418.791 750.76H453.59H488.284L453.59 632.771Z" fill="#090F2E"/>
<path d="M499.465 700.027L450.873 818.016H499.465H548.058L499.465 700.027Z" fill="#090F2E"/>
<path d="M499.465 667.462L459.023 785.451H499.465H539.906L499.465 667.462Z" fill="#090F2E"/>
<path d="M499.465 634.897L464.771 752.885H499.465H534.263L499.465 634.897Z" fill="#090F2E"/>
<path d="M531.651 726.408L483.059 844.397H531.651H580.139L531.651 726.408Z" fill="#090F2E"/>
<path d="M531.651 693.843L491.105 811.831H531.651H572.092L531.651 693.843Z" fill="#090F2E"/>
<path d="M531.651 661.374L496.853 779.363H531.651H566.345L531.651 661.374Z" fill="#090F2E"/>
<path d="M566.345 718.001L517.752 835.989H566.345H614.937L566.345 718.001Z" fill="#090F2E"/>
<path d="M566.345 685.436L525.903 803.424H566.345H606.786L566.345 685.436Z" fill="#090F2E"/>
<path d="M566.345 652.871L531.651 770.859H566.345H601.039L566.345 652.871Z" fill="#090F2E"/>
<path d="M620.999 644.657L572.406 762.645H620.999H669.591L620.999 644.657Z" fill="#090F2E"/>
<path d="M620.999 612.092L580.453 730.08H620.999H661.44L620.999 612.092Z" fill="#090F2E"/>
<path d="M620.999 579.526L586.2 697.515H620.999H655.693L620.999 579.526Z" fill="#090F2E"/>
<path d="M653.08 671.038L604.488 789.026H653.08H701.673L653.08 671.038Z" fill="#090F2E"/>
<path d="M653.08 638.569L612.639 756.558H653.08H693.522L653.08 638.569Z" fill="#090F2E"/>
<path d="M653.08 606.004L618.386 723.992H653.08H687.879L653.08 606.004Z" fill="#090F2E"/>
<path d="M687.879 662.631L639.286 780.619H687.879H736.367L687.879 662.631Z" fill="#090F2E"/>
<path d="M687.879 630.065L647.333 748.054H687.879H728.32L687.879 630.065Z" fill="#090F2E"/>
<path d="M687.879 597.5L653.08 715.489H687.879H722.573L687.879 597.5Z" fill="#090F2E"/>
<path d="M732.918 657.219L684.326 775.208H732.918H781.511L732.918 657.219Z" fill="#090F2E"/>
<path d="M732.918 624.654L692.372 742.642H732.918H773.36L732.918 624.654Z" fill="#090F2E"/>
<path d="M732.918 592.089L698.12 710.077H732.918H767.612L732.918 592.089Z" fill="#090F2E"/>
<path d="M765 683.697L716.407 801.685H765H813.592L765 683.697Z" fill="#090F2E"/>
<path d="M765 651.131L724.558 769.12H765H805.441L765 651.131Z" fill="#090F2E"/>
<path d="M765 618.566L730.306 736.555H765H799.798L765 618.566Z" fill="#090F2E"/>
<path d="M799.798 675.193L751.206 793.181H799.798H848.286L799.798 675.193Z" fill="#090F2E"/>
<path d="M799.798 642.628L759.252 760.616H799.798H840.24L799.798 642.628Z" fill="#090F2E"/>
<path d="M799.798 610.062L765 728.051H799.798H834.492L799.798 610.062Z" fill="#090F2E"/>
<path d="M848.286 640.308L799.798 758.297H848.286H896.879L848.286 640.308Z" fill="#090F2E"/>
<path d="M848.286 607.743L807.844 725.732H848.286H888.832L848.286 607.743Z" fill="#090F2E"/>
<path d="M848.286 575.178L813.592 693.166H848.286H883.085L848.286 575.178Z" fill="#090F2E"/>
<path d="M880.472 666.786L831.88 784.774H880.472H929.065L880.472 666.786Z" fill="#090F2E"/>
<path d="M880.472 634.22L840.031 752.209H880.472H920.914L880.472 634.22Z" fill="#090F2E"/>
<path d="M880.472 601.655L845.674 719.644H880.472H915.166L880.472 601.655Z" fill="#090F2E"/>
<path d="M942.754 682.923L894.162 800.912H942.754H991.347L942.754 682.923Z" fill="#090F2E"/>
<path d="M942.754 650.358L902.313 768.347H942.754H983.196L942.754 650.358Z" fill="#090F2E"/>
<path d="M942.754 617.793L908.06 735.781H942.754H977.448L942.754 617.793Z" fill="#090F2E"/>
<path d="M1010.68 685.726L962.087 803.714H1010.68H1059.27L1010.68 685.726Z" fill="#090F2E"/>
<path d="M1010.68 653.161L970.238 771.149H1010.68H1051.23L1010.68 653.161Z" fill="#090F2E"/>
<path d="M1010.68 620.595L975.985 738.584H1010.68H1045.48L1010.68 620.595Z" fill="#090F2E"/>
<path d="M1042.86 712.203L994.272 830.192H1042.86H1091.35L1042.86 712.203Z" fill="#090F2E"/>
<path d="M1042.87 679.638L1002.32 797.626H1042.87H1083.31L1042.87 679.638Z" fill="#090F2E"/>
<path d="M1042.86 647.073L1008.07 765.061H1042.86H1077.56L1042.86 647.073Z" fill="#090F2E"/>
<path d="M1082.37 720.32L1033.77 838.309H1082.37H1130.96L1082.37 720.32Z" fill="#090F2E"/>
<path d="M1082.37 687.755L1041.82 805.743H1082.37H1122.81L1082.37 687.755Z" fill="#090F2E"/>
<path d="M1082.37 655.286L1047.57 773.178H1082.37H1117.06L1082.37 655.286Z" fill="#090F2E"/>
<path d="M1112.67 716.358L1064.08 834.347H1112.67H1161.26L1112.67 716.358Z" fill="#090F2E"/>
<path d="M1112.67 683.793L1072.13 801.781H1112.67H1153.11L1112.67 683.793Z" fill="#090F2E"/>
<path d="M1112.67 651.228L1077.87 769.216H1112.67H1147.37L1112.67 651.228Z" fill="#090F2E"/>
<path fill-rule="evenodd" clip-rule="evenodd" d="M519.778 508.275C533.378 479.882 541 448.052 541 414.479C541 294.382 443.608 197 323.5 197C203.392 197 106 294.332 106 414.479C106 448.052 113.622 479.882 127.222 508.275H519.778Z" fill="url(#paint1_radial)"/>
<path fill-rule="evenodd" clip-rule="evenodd" d="M475.608 501.433C486.113 479.502 492 454.916 492 428.984C492 336.219 416.773 261 324 261C231.227 261 156 336.181 156 428.984C156 454.916 161.887 479.502 172.392 501.433H475.608Z" fill="url(#paint2_radial)"/>
<path fill-rule="evenodd" clip-rule="evenodd" d="M497.266 502.78C509.272 477.716 516 449.618 516 419.981C516 313.965 430.027 228 324 228C217.973 228 132 313.921 132 419.981C132 449.618 138.728 477.716 150.734 502.78H497.266Z" fill="url(#paint3_radial)"/>
<path fill-rule="evenodd" clip-rule="evenodd" d="M0 544.87C21.736 523.659 44.2035 503.179 67.507 483.639C82.6595 470.891 99.066 458.144 118.607 455.427C142.224 452.188 165.005 464.308 188.413 468.801C229.691 476.743 272.013 460.547 307.543 438.186C343.073 415.825 374.528 387.195 410.894 366.088C415.387 363.476 420.508 360.864 425.628 361.804C430.54 362.744 434.302 366.61 437.437 370.372C466.174 404.331 482.79 447.277 510.9 481.758C539.011 516.24 586.558 542.362 627.313 524.704C642.57 518.121 654.901 506.104 669.113 497.432C683.325 488.759 701.822 483.43 716.452 491.267C732.44 499.939 737.352 519.897 744.562 536.72C751.773 553.543 768.702 570.679 785.526 563.887C792.005 561.275 796.708 555.633 801.097 550.199C853.66 485.729 909.672 424.08 968.924 365.775C973.835 360.968 979.165 355.953 985.957 355.117C991.287 354.49 996.512 356.475 1001.21 359.087C1033.19 376.955 1044.27 418.333 1072.27 441.843C1084.5 452.083 1099.44 458.562 1111.98 468.488C1169.77 514.15 1154.1 609.027 1197.36 668.586C1199.66 671.825 1202.38 675.064 1206.24 676.214C1213.45 678.513 1220.35 672.557 1225.58 667.228C1252.33 639.642 1279.08 611.953 1305.83 584.367C1309.8 580.292 1314.4 575.904 1320.15 575.904C1325.16 575.904 1329.45 579.456 1333.21 582.8C1368.22 614.147 1463 697.53 1463 697.53C1463 697.53 1464.36 912.674 1463 983.205H0V544.87Z" fill="#172247"/>
<path fill-rule="evenodd" clip-rule="evenodd" d="M445.484 496.178C445.484 496.178 447.574 497.223 449.664 497.223C456.979 495.133 461.159 487.819 468.474 487.819C468.474 510.806 461.159 532.749 456.979 555.737C455.934 564.096 454.889 573.5 461.159 579.77C476.834 592.308 498.779 592.308 510.274 609.027C522.814 630.97 528.039 653.957 537.444 675.9C538.489 638.284 524.904 601.713 523.859 564.096C523.859 549.468 519.679 521.255 533.264 522.3C542.669 523.345 549.984 539.019 561.479 545.288C581.02 553.961 595.441 541.631 610.176 529.824C573.81 535.153 535.145 511.747 511.005 481.967C482.895 447.381 466.279 404.54 437.542 370.581C435.347 367.969 432.944 365.357 430.018 363.58C457.188 400.152 450.918 451.352 445.484 496.178Z" fill="#090F2E"/>
<path fill-rule="evenodd" clip-rule="evenodd" d="M714.048 533.794C708.823 549.468 733.903 541.108 735.993 550.513C739.128 567.231 708.823 570.366 696.283 580.815C685.833 589.174 667.023 596.488 669.113 611.117C695.238 609.027 724.498 588.129 746.443 604.847C758.983 614.251 756.893 634.104 761.073 650.823C765.253 669.631 765.253 689.484 777.793 703.068C785.108 710.382 785.108 688.439 787.198 682.17C795.14 640.478 790.647 599.832 792.528 559.708C790.438 561.484 788.244 562.947 785.736 563.887C768.911 570.679 751.982 553.543 744.772 536.72C737.561 520.001 732.649 499.939 716.661 491.267C715.198 490.535 713.839 489.908 712.272 489.386C718.124 503.388 720.318 518.33 714.048 533.794Z" fill="#090F2E"/>
<path fill-rule="evenodd" clip-rule="evenodd" d="M1024.41 454.382C1015.01 493.043 992.019 535.884 1020.23 570.366C1028.59 544.243 1023.37 506.627 1048.45 489.908C1049.49 529.615 1078.75 558.872 1095.47 592.308C1112.19 625.745 1089.2 664.406 1097.56 702.023C1102.79 727.1 1097.56 766.806 1124.73 772.031C1132.05 773.076 1135.18 757.402 1141.45 750.088C1164.23 725.324 1191.51 703.068 1211.57 676.632C1209.8 676.945 1208.02 676.945 1206.24 676.318C1202.48 675.169 1199.76 671.825 1197.36 668.69C1154.1 609.131 1169.77 514.255 1111.98 468.593C1099.44 458.666 1084.5 452.292 1072.27 441.948C1044.37 418.542 1033.3 377.477 1001.63 359.505C1022.32 386.777 1033.09 422.304 1024.41 454.382Z" fill="#090F2E"/>
<path fill-rule="evenodd" clip-rule="evenodd" d="M1333.21 582.8C1331.85 581.651 1330.49 580.501 1329.14 579.352C1338.96 601.504 1333.94 627.208 1343.24 650.823C1346.38 660.227 1355.78 664.407 1363.1 671.721C1376.68 682.17 1393.4 696.798 1386.09 715.607C1378.77 738.594 1368.32 761.582 1364.14 784.57C1369.37 782.48 1372.5 778.3 1377.73 775.166C1387.13 767.851 1400.72 744.864 1405.94 755.313C1421.1 788.854 1441.16 818.634 1463.73 847.159C1463.63 771.613 1463.1 697.53 1463.1 697.53C1463.1 697.53 1368.22 614.147 1333.21 582.8Z" fill="#090F2E"/>
<path fill-rule="evenodd" clip-rule="evenodd" d="M177.963 546.333C198.863 531.704 213.493 514.986 228.123 495.133C236.379 484.475 244.634 474.026 253.099 464.099C231.99 470.578 210.045 473.086 188.413 469.011C167.409 464.935 146.927 454.8 125.922 455.113C140.134 474.235 137.731 502.552 140.343 526.584C142.433 544.243 161.243 556.782 177.963 546.333Z" fill="#090F2E"/>
<path d="M1464 815.247C1253.64 779.198 1114.24 702.816 912.867 668.438C625.387 619.328 521.932 824.442 479.819 807.305C437.705 790.169 399.354 781.705 368.631 745.343C346.477 719.116 316.485 769.584 275.521 772.51V948.262H1464V815.247Z" fill="#1D1D3A"/>
<path d="M1464 853.176C1447.49 854.326 1429.62 855.371 1410.08 856.311C866.574 881.075 659.036 707.518 288.479 644.197C170.186 623.926 76.1355 637.091 1 663.632V1005H1464V853.176Z" fill="#262649"/>
<path d="M171.544 561.336L104.246 737.924H171.544H238.738L171.544 561.336Z" fill="#0A0D21"/>
<path d="M171.544 512.644L115.532 689.127H171.544H227.556L171.544 512.644Z" fill="#0A0D21"/>
<path d="M171.544 463.847L123.474 640.435H171.544H219.614L171.544 463.847Z" fill="#0A0D21"/>
<path d="M951.219 627.688L929.692 684.216H951.219H972.746L951.219 627.688Z" fill="#0A0D21"/>
<path d="M951.219 612.118L933.245 668.647H951.219H969.088L951.219 612.118Z" fill="#0A0D21"/>
<path d="M951.219 596.549L935.857 652.974H951.219H966.58L951.219 596.549Z" fill="#0A0D21"/>
<path d="M913.285 627.583L890.4 687.769H913.285H936.171L913.285 627.583Z" fill="#0A0D21"/>
<path d="M913.285 610.969L894.266 671.155H913.285H932.409L913.285 610.969Z" fill="#0A0D21"/>
<path d="M913.285 594.355L896.983 654.541H913.285H929.692L913.285 594.355Z" fill="#0A0D21"/>
<path d="M973.686 646.182L953.204 699.994H973.686H994.168L973.686 646.182Z" fill="#0A0D21"/>
<path d="M973.686 631.344L956.653 685.157H973.686H990.824L973.686 631.344Z" fill="#0A0D21"/>
<path d="M973.686 616.507L959.056 670.319H973.686H988.421L973.686 616.507Z" fill="#0A0D21"/>
<path d="M535.204 597.176L487.343 722.773H535.204H583.065L535.204 597.176Z" fill="#0A0D21"/>
<path d="M535.204 562.486L495.285 688.187H535.204H575.019L535.204 562.486Z" fill="#0A0D21"/>
<path d="M535.204 527.795L501.033 653.496H535.204H569.376L535.204 527.795Z" fill="#0A0D21"/>
<path d="M447.738 581.398L396.951 714.727H447.738H498.525L447.738 581.398Z" fill="#0A0D21"/>
<path d="M447.738 544.513L405.415 677.947H447.738H490.06L447.738 544.513Z" fill="#0A0D21"/>
<path d="M447.738 507.733L411.372 641.167H447.738H483.999L447.738 507.733Z" fill="#0A0D21"/>
<path d="M620.999 633.225L561.016 790.587H620.999H680.877L620.999 633.225Z" fill="#0A0F24"/>
<path d="M620.998 589.758L571.047 747.119H620.998H670.949L620.998 589.758Z" fill="#0A0F24"/>
<path d="M620.998 546.394L578.153 703.756H620.998H663.843L620.998 546.394Z" fill="#0A0F24"/>
<path d="M857.796 611.387L834.91 671.469H857.796H880.681L857.796 611.387Z" fill="#0A0F24"/>
<path d="M857.796 594.773L838.672 654.855H857.796H876.919L857.796 594.773Z" fill="#0A0F24"/>
<path d="M857.796 578.159L841.389 638.241H857.796H874.202L857.796 578.159Z" fill="#0A0F24"/>
<path d="M1029.18 630.613L998.662 710.757H1029.18H1059.69L1029.18 630.613Z" fill="#0A0F24"/>
<path d="M1029.18 608.461L1003.68 688.605H1029.18H1054.57L1029.18 608.461Z" fill="#0A0F24"/>
<path d="M1029.18 586.309L1007.34 666.558H1029.18H1051.02L1029.18 586.309Z" fill="#0A0F24"/>
<path d="M760.82 630.404L729.888 711.488H760.82H791.752L760.82 630.404Z" fill="#0A0F24"/>
<path d="M760.82 607.939L735.113 689.127H760.82H786.527L760.82 607.939Z" fill="#0A0F24"/>
<path d="M760.82 585.578L738.77 666.767H760.82H782.869L760.82 585.578Z" fill="#0A0F24"/>
<path d="M933.872 676.066L891.863 786.407H933.872H975.881L933.872 676.066Z" fill="#0A0F24"/>
<path d="M933.872 645.555L898.864 755.896H933.872H968.879L933.872 645.555Z" fill="#0A0F24"/>
<path d="M933.872 615.149L903.88 725.49H933.872H963.968L933.872 615.149Z" fill="#0A0F24"/>
<path d="M286.181 561.545L202.685 780.765H286.181H369.676L286.181 561.545Z" fill="#0A0F24"/>
<path d="M286.18 501.046L216.583 720.265H286.18H355.777L286.18 501.046Z" fill="#0A0F24"/>
<path d="M286.181 440.546L226.407 659.766H286.181H345.85L286.181 440.546Z" fill="#0A0F24"/>
<path d="M1121.45 661.229L1068.57 800.096H1121.45H1174.43L1121.45 661.229Z" fill="#0A0D21"/>
<path d="M1121.45 622.881L1077.45 761.852H1121.45H1165.55L1121.45 622.881Z" fill="#0A0D21"/>
<path d="M1121.45 584.533L1083.62 723.505H1121.45H1159.28L1121.45 584.533Z" fill="#0A0D21"/>
<path d="M1307.25 661.229L1244.55 800.096H1307.25H1370.05L1307.25 661.229Z" fill="#0A0D21"/>
<path d="M1307.25 622.881L1255 761.852H1307.25H1359.5L1307.25 622.881Z" fill="#0A0D21"/>
<path d="M1307.25 584.533L1262.42 723.505H1307.25H1352.19L1307.25 584.533Z" fill="#0A0D21"/>
<path d="M1235.88 594.146L1152.38 813.366H1235.88H1319.37L1235.88 594.146Z" fill="#0A0F24"/>
<path d="M1235.88 533.647L1166.28 752.866H1235.88H1305.47L1235.88 533.647Z" fill="#0A0F24"/>
<path d="M1235.88 473.042L1176.21 692.367H1235.88H1295.55L1235.88 473.042Z" fill="#0A0F24"/>
<path d="M98.0807 672.2L50.9512 795.811H98.0807H145.106L98.0807 672.2Z" fill="#0A0F24"/>
<path d="M98.0806 638.136L58.7886 761.748H98.0806H137.268L98.0806 638.136Z" fill="#0A0F24"/>
<path d="M98.0807 603.968L64.3271 727.58H98.0807H131.73L98.0807 603.968Z" fill="#0A0F24"/>
<path fill-rule="evenodd" clip-rule="evenodd" d="M1 1005H1464V853.176C1464 853.176 1017.99 886.091 702.822 824.964C387.65 763.838 1 813.366 1 813.366V1005Z" fill="#060515"/>
<path fill-rule="evenodd" clip-rule="evenodd" d="M1014.34 871.149L1017.89 839.488L1001.9 835.1L1003.15 825.486L1019.46 828.203L1021.13 810.126L1034.5 811.38L1032.52 828.726L1049.03 831.024L1047.15 842.623L1031.06 840.324L1028.76 878.149L1014.34 871.149Z" fill="#060515"/>
<path fill-rule="evenodd" clip-rule="evenodd" d="M1083.31 863.207L1080.48 839.906L1068.26 839.384L1067.63 832.383L1079.75 831.547L1077.87 818.277L1087.8 817.023L1089.16 829.77L1101.38 828.621L1102.01 837.294L1090.1 838.339L1094.8 865.819L1083.31 863.207Z" fill="#060515"/>
<path fill-rule="evenodd" clip-rule="evenodd" d="M825.191 846.802L822.161 820.784L808.472 820.262L807.74 812.425L821.325 811.589L819.235 796.752L830.207 795.289L831.775 809.499L845.36 808.246L846.091 817.859L832.82 819.008L838.045 849.624L825.191 846.802Z" fill="#060515"/>
<path fill-rule="evenodd" clip-rule="evenodd" d="M858.423 850.251L858.318 832.487L849.122 831.024L849.227 825.695L858.527 826.113L858.214 815.978L865.738 815.769V825.486L875.038 825.8L874.829 832.278L865.738 832.069L866.887 853.176L858.423 850.251Z" fill="#060515"/>
<path fill-rule="evenodd" clip-rule="evenodd" d="M914.748 857.774L911.822 844.713L904.821 845.131L904.089 841.16L910.986 840.011L909.105 832.592L914.644 831.233L916.211 838.443L923.108 837.085L923.944 841.996L917.256 843.25L921.436 858.61L914.748 857.774Z" fill="#060515"/>
<path fill-rule="evenodd" clip-rule="evenodd" d="M789.243 840.011V826.636L784.227 825.8C783.182 825.591 782.451 824.755 782.451 823.606C782.451 822.352 783.496 821.516 784.75 821.516L789.557 821.725L789.452 816.187C789.452 815.038 790.393 813.993 791.542 813.993H792.901C794.05 813.993 795.095 814.933 795.095 816.187V821.307L799.902 821.411C801.052 821.411 801.992 822.456 801.992 823.606V824.233C801.992 825.382 800.947 826.322 799.798 826.218L795.095 826.113L795.931 841.996L789.243 840.011Z" fill="#060515"/>
<path d="M514.618 822.352C514.618 821.829 514.618 821.202 514.618 820.366C515.245 821.516 515.245 821.516 514.618 822.352Z" fill="#060515"/>
<path fill-rule="evenodd" clip-rule="evenodd" d="M277.507 743.671L279.597 715.981L258.175 714.936L256.92 743.775L230.795 740.641L229.437 755.896L255.144 761.748L252.114 807.096H275.522L276.148 762.166L301.855 764.778L303.945 746.179L277.507 743.671Z" fill="#060515"/>
<path fill-rule="evenodd" clip-rule="evenodd" d="M365.391 801.767H383.052L378.454 763.106L397.577 762.375L397.264 748.582L377.618 749.313L376.364 728.833L360.48 730.192L362.465 751.508L342.924 751.821L343.446 763.211L362.988 764.882L365.391 801.767Z" fill="#060515"/>
<path fill-rule="evenodd" clip-rule="evenodd" d="M450.559 811.276L455.053 775.749L437.079 770.629L438.646 759.867L456.934 763.106L459.024 742.835L474.072 744.402L471.564 763.837L490.06 766.659L487.866 779.72L469.892 776.899L466.757 819.321L450.559 811.276Z" fill="#060515"/>
<path fill-rule="evenodd" clip-rule="evenodd" d="M468.011 839.175L472.191 821.829L463.517 818.277L464.98 813.052L473.863 815.769L475.953 805.842L483.372 807.41L480.969 816.918L489.956 819.322L488.179 825.695L479.401 823.292L475.535 844.086L468.011 839.175Z" fill="#060515"/>
<path fill-rule="evenodd" clip-rule="evenodd" d="M993.332 821.307L985.181 819.844C986.331 813.47 978.911 806.783 968.775 805.006C958.534 803.23 949.442 806.992 948.293 813.366L940.142 811.903L931.05 864.252H986.017L993.332 821.307Z" fill="#060515"/>
<defs>
<linearGradient id="paint0_linear" x1="732.5" y1="978" x2="732.5" y2="0" gradientUnits="userSpaceOnUse">
<stop stop-color="#0B1E83"/>
<stop offset="0.432292" stop-color="#2B2D56"/>
<stop offset="0.6443" stop-color="#0F1830"/>
<stop offset="0.7661" stop-color="#0F1A37"/>
<stop offset="0.8856" stop-color="#081130"/>
<stop offset="1" stop-color="#02071F"/>
</linearGradient>
<radialGradient id="paint1_radial" cx="0" cy="0" r="1" gradientUnits="userSpaceOnUse" gradientTransform="translate(330.479 406.417) scale(255.953 255.928)">
<stop offset="0.0175439" stop-color="white" stop-opacity="0.02"/>
</radialGradient>
<radialGradient id="paint2_radial" cx="0" cy="0" r="1" gradientUnits="userSpaceOnUse" gradientTransform="translate(329.391 422.756) scale(197.702 197.682)">
<stop offset="0.0175439" stop-color="white"/>
<stop offset="0.1783" stop-color="#FDFCFB"/>
<stop offset="0.322" stop-color="#F8F7F1"/>
<stop offset="0.4591" stop-color="#F0EDDE"/>
<stop offset="0.5922" stop-color="#E5E0C5"/>
<stop offset="0.7224" stop-color="#D6CBA3"/>
<stop offset="0.8505" stop-color="#A59E64"/>
<stop offset="0.9746" stop-color="#A39F49"/>
</radialGradient>
<radialGradient id="paint3_radial" cx="0" cy="0" r="1" gradientUnits="userSpaceOnUse" gradientTransform="translate(330.161 412.864) scale(225.945 225.923)">
<stop offset="0.0175439" stop-color="white" stop-opacity="0.05"/>
</radialGradient>
</defs>
</svg>
