<?xml version="1.0" encoding="utf-8"?>
<!-- Generator: Adobe Illustrator 16.0.3, SVG Export Plug-In . SVG Version: 6.00 Build 0)  -->
<!DOCTYPE svg PUBLIC "-//W3C//DTD SVG 1.1//EN" "http://www.w3.org/Graphics/SVG/1.1/DTD/svg11.dtd">
<svg version="1.1" id="Layer_2" xmlns="http://www.w3.org/2000/svg" xmlns:xlink="http://www.w3.org/1999/xlink" x="0px" y="0px"
	 width="1400px" height="980px" viewBox="0 0 1400 980" enable-background="new 0 0 1400 980" xml:space="preserve">
<g>
	<g>
		<path fill-rule="evenodd" clip-rule="evenodd" fill="#EFEEEE" d="M282.646,119.06c105.12,4.016,124.019,89.176,105.83,155.084
			c-8.15,29.174,2.716,30.356,4.134,45.593c0.236,6.261-5.435,15.355-12.403,16.535c-40.276,0-40.748-1.298-49.371,36.263h-48.19
			v-51.144c4.606,4.96,9.331,16.771,14.291,12.047c9.569-9.213,2.362-30.946-14.291-44.411V119.06z M362.136,303.2
			c10.395-15.355,16.889-41.813,2.952-55.631c-13.937-13.701-45.119-9.095-61.773-2.48c-14.527,10.631-3.306,32.955,1.654,46.419
			C310.993,307.927,347.843,310.525,362.136,303.2L362.136,303.2z"/>
		<path fill-rule="evenodd" clip-rule="evenodd" fill="#EFEEEE" d="M282.646,380.094v38.979c23.385-0.826,45.118-8.033,62.009-21.97
			c16.063-13.347,24.685-36.26,30.238-54.806c-4.727-0.354-14.765-2.834-15.829,1.772c-2.952,12.047-6.496,18.543-20.197,20.197
			c-3.542,4.606,5.67,15.827,0.354,15.827H282.646z"/>
		<path fill-rule="evenodd" clip-rule="evenodd" fill="#DCDCDD" d="M282.646,119.06c-105.24,4.016-124.139,89.176-105.948,155.084
			c8.148,29.174-2.716,30.356-4.134,45.593c-0.236,6.261,5.432,15.355,12.521,16.535c40.158,0,40.63-1.298,49.253,36.263h48.309
			v-51.144c-4.725,4.96-9.451,16.771-14.293,12.047c-9.685-9.213-2.48-30.946,14.293-44.411V119.06z M203.037,303.2
			c-10.395-15.355-16.891-41.813-2.954-55.631c13.938-13.701,45.12-9.095,61.773-2.48c14.528,10.631,3.308,32.955-1.652,46.419
			C254.18,307.927,217.328,310.525,203.037,303.2L203.037,303.2z"/>
		<path fill-rule="evenodd" clip-rule="evenodd" fill="#DCDCDD" d="M282.646,380.094v38.979
			c-23.505-0.826-45.239-8.033-62.127-21.97c-15.947-13.347-24.567-36.26-30.238-54.806c4.724-0.354,14.765-2.834,15.827,1.772
			c2.952,12.047,6.496,18.543,20.197,20.197c3.544,4.606-5.668,15.827-0.354,15.827H282.646z"/>
	</g>
	<g>
		<path fill-rule="evenodd" clip-rule="evenodd" fill="#EFEEEE" d="M709.239,192.062c9.055,0,16.526,7.33,16.526,16.382v203.057
			c0,9.053-7.472,16.382-16.526,16.382V192.062z"/>
		<path fill-rule="evenodd" clip-rule="evenodd" fill="#EFEEEE" d="M725.766,208.444c12.648,2.73,27.159,5.461,40.095,4.743
			c21.125-1.151,19.685-18.395,28.452-22.13c8.768-3.881,14.945,7.041,11.065,16.813c-16.813,29.316-43.686,27.735-79.612,19.831
			V208.444z"/>
		<path fill-rule="evenodd" clip-rule="evenodd" fill="#EFEEEE" d="M725.766,256.873c12.648,2.73,27.159,5.461,40.095,4.6
			c21.125-1.151,19.685-18.251,28.452-22.13c8.768-3.738,14.945,7.04,11.065,16.956c-16.813,29.316-43.686,27.735-79.612,19.687
			V256.873z"/>
		<path fill-rule="evenodd" clip-rule="evenodd" fill="#EFEEEE" d="M725.766,349.421c12.648,2.73,22.56,5.604,35.353,4.886
			c21.268-1.294,19.685-18.395,28.451-22.275c8.911-3.736,14.947,7.042,11.209,16.959c-16.813,29.313-39.086,27.59-75.013,19.686
			V349.421z"/>
		<path fill-rule="evenodd" clip-rule="evenodd" fill="#EFEEEE" d="M725.766,303.579c12.648,2.73,27.159,5.46,40.095,4.741
			c21.125-1.149,19.685-18.393,28.452-22.13c8.768-3.879,14.945,7.042,11.065,16.957c-16.813,29.316-43.686,27.593-79.612,19.689
			V303.579z"/>
		<path fill-rule="evenodd" clip-rule="evenodd" fill="#EFEEEE" d="M725.766,393.25c12.648,2.73,22.56,5.604,35.353,4.886
			c21.268-1.294,19.685-18.395,28.451-22.273c8.911-3.738,14.947,7.184,11.209,16.957c-16.813,29.316-39.086,27.59-75.013,19.687
			V393.25z"/>
		<path fill-rule="evenodd" clip-rule="evenodd" fill="#EFEEEE" d="M725.334,173.811c24.432-2.875,62.513-12.934,82.341,4.168
			c8.911-1.294,28.169-3.018,22.853-9.485c-13.654-16.813-32.908-20.262-54.464-21.412c-22.708-1.293-41.675,6.324-66.824,6.324
			v33.195C717.001,186.601,723.611,181.141,725.334,173.811L725.334,173.811z"/>
		<path fill-rule="evenodd" clip-rule="evenodd" fill="#EFEEEE" d="M709.239,119.06h8.768c6.466,0,11.782,5.317,11.782,11.783l0,0
			c0,6.468-5.316,11.785-11.782,11.785h-8.768V119.06z"/>
		<path fill-rule="evenodd" clip-rule="evenodd" fill="#EFEEEE" d="M709.239,433.774h8.768c6.466,0,11.782,5.317,11.782,11.785l0,0
			c0,6.61-5.316,11.927-11.782,11.927h-8.768V433.774z"/>
		<path fill-rule="evenodd" clip-rule="evenodd" fill="#EFEEEE" d="M709.239,463.809h6.466c5.604,0,10.204,4.599,10.204,10.06l0,0
			c0,5.604-4.6,10.204-10.204,10.204h-6.466V463.809z"/>
		<path fill-rule="evenodd" clip-rule="evenodd" fill="#DCDCDD" d="M709.239,192.062c-9.055,0-16.382,7.33-16.382,16.382v203.057
			c0,9.053,7.327,16.382,16.382,16.382V192.062z"/>
		<path fill-rule="evenodd" clip-rule="evenodd" fill="#DCDCDD" d="M692.857,208.444c-12.646,2.73-27.16,5.461-40.094,4.743
			c-21.125-1.151-19.687-18.395-28.452-22.13c-8.768-3.881-14.946,7.041-11.211,16.813c16.816,29.316,43.832,27.735,79.757,19.831
			V208.444z"/>
		<path fill-rule="evenodd" clip-rule="evenodd" fill="#DCDCDD" d="M692.857,256.873c-12.646,2.73-27.16,5.461-40.094,4.6
			c-21.125-1.151-19.687-18.251-28.452-22.13c-8.768-3.738-14.946,7.04-11.211,16.956c16.816,29.316,43.832,27.735,79.757,19.687
			V256.873z"/>
		<path fill-rule="evenodd" clip-rule="evenodd" fill="#DCDCDD" d="M692.857,349.421c-12.646,2.73-22.561,5.604-35.494,4.886
			c-21.125-1.294-19.543-18.395-28.454-22.275c-8.766-3.736-14.801,7.042-11.065,16.959c16.813,29.313,39.089,27.59,75.014,19.686
			V349.421z"/>
		<path fill-rule="evenodd" clip-rule="evenodd" fill="#DCDCDD" d="M692.857,303.579c-12.646,2.73-27.16,5.46-40.094,4.741
			c-21.125-1.149-19.687-18.393-28.452-22.13c-8.768-3.879-14.946,7.042-11.211,16.957c16.816,29.316,43.832,27.593,79.757,19.689
			V303.579z"/>
		<path fill-rule="evenodd" clip-rule="evenodd" fill="#DCDCDD" d="M692.857,393.25c-12.646,2.73-22.561,5.604-35.494,4.886
			c-21.125-1.294-19.543-18.395-28.454-22.273c-8.766-3.738-14.801,7.184-11.065,16.957c16.813,29.316,39.089,27.59,75.014,19.687
			V393.25z"/>
		<path fill-rule="evenodd" clip-rule="evenodd" fill="#DCDCDD" d="M693.288,173.811c-24.43-2.875-62.654-12.934-82.341,4.168
			c-8.911-1.294-28.311-3.018-22.85-9.485c13.508-16.813,32.763-20.262,54.319-21.412c22.85-1.293,41.818,6.324,66.823,6.324v33.195
			C701.481,186.601,695.013,181.141,693.288,173.811L693.288,173.811z"/>
		<path fill-rule="evenodd" clip-rule="evenodd" fill="#DCDCDD" d="M709.239,119.06h-8.625c-6.608,0-11.923,5.317-11.923,11.783l0,0
			c0,6.468,5.314,11.785,11.923,11.785h8.625V119.06z"/>
		<path fill-rule="evenodd" clip-rule="evenodd" fill="#DCDCDD" d="M709.239,433.774h-8.625c-6.608,0-11.923,5.317-11.923,11.785
			l0,0c0,6.61,5.314,11.927,11.923,11.927h8.625V433.774z"/>
		<path fill-rule="evenodd" clip-rule="evenodd" fill="#DCDCDD" d="M709.239,463.809h-6.466c-5.461,0-10.06,4.599-10.06,10.06l0,0
			c0,5.604,4.599,10.204,10.06,10.204h6.466V463.809z"/>
	</g>
	<g>
		<path fill-rule="evenodd" clip-rule="evenodd" fill="#EFEEEE" d="M709.271,602.625c18.661,2.242,33.31-8.505,47.482-27.524
			c19.959-27.048,85.276-14.409,78.664,32.721c-2.6,18.661-26.103,28.228-34.018,45.354c-2.718,6.022,7.442,13.819,4.017,19.487
			c-6.259,10.043-19.609-3.54-28.939,20.554c-9.449,24.216,11.458,88.822-67.206,21.025v-18.189l8.387,0.473
			c13.7,0.943,27.283-7.915,36.023-19.492c8.858-11.454,26.104-28.817,11.695-44.528c-10.515-11.455-11.695,11.931-18.779,15.356
			c-7.206,3.427-14.413,0.59-20.789,4.606c-6.499,4.017-7.442,16.537-10.751,17.953c-3.422,1.298-4.012,1.181-5.786,1.181V602.625z"
			/>
		<path fill-rule="evenodd" clip-rule="evenodd" fill="#EFEEEE" d="M806.832,682.47c5.79,6.259,2.246,11.219,8.032,14.764
			c6.971,4.252,16.183,1.18,24.333,1.888c8.977,5.2,16.533,21.379,13.938,22.205c-16.773,0-20.672,82.328-19.609,111.976
			c8.858,13.111,10.868,18.071,6.734,26.104c-2.719,5.432-11.577-4.488-17.599-4.725c-5.909-0.354-16.065,8.387-17.718,2.714
			c-4.605-14.409,10.039-19.133,10.157-29.644c0.59-38.507,2.364-114.808-8.033-115.402c-9.685-3.658-25.631,9.571-25.985,6.263
			C780.139,708.098,797.029,670.067,806.832,682.47L806.832,682.47z"/>
		<path fill-rule="evenodd" clip-rule="evenodd" fill="#EFEEEE" d="M756.045,698.885c4.606,3.072,4.96,10.397,0.826,16.537
			c-4.017,6.263-10.986,8.741-15.593,5.787c-4.488-3.068-4.843-10.511-0.826-16.651
			C744.586,698.413,751.557,695.935,756.045,698.885L756.045,698.885z"/>
		<path fill-rule="evenodd" clip-rule="evenodd" fill="#DCDCDD" d="M709.271,602.625c-18.543,2.242-33.308-8.505-47.362-27.524
			c-20.079-27.048-85.397-14.409-78.783,32.721c2.716,18.661,26.104,28.228,34.016,45.354c2.836,6.022-7.44,13.819-3.896,19.487
			c6.261,10.043,19.607-3.54,28.938,20.554c9.331,24.216-11.457,88.822,67.088,21.025v-18.189l-8.387,0.473
			c-13.583,0.943-27.165-7.915-36.023-19.492c-8.741-11.454-26.104-28.817-11.575-44.528c10.512-11.455,11.575,11.931,18.779,15.356
			c7.207,3.427,14.293,0.59,20.789,4.606c6.497,4.017,7.44,16.537,10.749,17.953c3.308,1.298,4.016,1.181,5.668,1.181V602.625z"/>
		<path fill-rule="evenodd" clip-rule="evenodd" fill="#DCDCDD" d="M611.827,682.47c-5.788,6.259-2.362,11.219-8.15,14.764
			c-6.851,4.252-16.181,1.18-24.213,1.888c-8.977,5.2-16.535,21.379-14.055,22.205c16.891,0,20.787,82.328,19.725,111.976
			c-8.858,13.111-10.867,18.071-6.851,26.104c2.834,5.432,11.575-4.488,17.717-4.725c5.906-0.354,16.063,8.387,17.599,2.714
			c4.725-14.409-9.922-19.133-10.041-29.644c-0.59-38.507-2.362-114.808,8.033-115.402c9.685-3.658,25.631,9.571,25.985,6.263
			C638.521,708.098,621.63,670.067,611.827,682.47L611.827,682.47z"/>
		<path fill-rule="evenodd" clip-rule="evenodd" fill="#DCDCDD" d="M662.498,698.885c-4.488,3.072-4.842,10.397-0.826,16.537
			c4.132,6.263,11.103,8.741,15.591,5.787c4.606-3.068,4.96-10.511,0.826-16.651C674.073,698.413,667.104,695.935,662.498,698.885
			L662.498,698.885z"/>
	</g>
	<g>
		<path fill-rule="evenodd" clip-rule="evenodd" fill="#DCDCDD" d="M1059.357,614.434l6.853,192.411l0,0
			c15.475,10.156,28.586,41.692,1.062,53.978c-4.96,2.246-10.274-13.348-15.706-12.993c-5.2,0.236-2.719,11.104-11.104,11.931
			c-10.275,1.181-18.426-12.993-20.077-23.268c-1.303-8.387-0.713-15.003,1.651-20.199c-28.821-79.963-15.711-129.57-4.37-206.82
			c-5.196-6.258-8.032-14.408-8.622-24.447c-0.59-10.278,9.566-24.569,19.845-23.39c8.501,0.944,5.433,8.032,10.747,8.269
			c5.432,0.236,8.977-10.746,13.937-8.622c9.448,4.252,19.015,13.465,20.081,23.743
			C1074.832,595.891,1064.086,604.631,1059.357,614.434L1059.357,614.434z M1034.084,804.008l-6.145-171.149
			C1016.722,692.391,1014.239,742.116,1034.084,804.008L1034.084,804.008z"/>
		<path fill-rule="evenodd" clip-rule="evenodd" fill="#EFEEEE" d="M1212.67,614.434l-6.849,192.411l0,0
			c-15.475,10.156-28.585,41.692-1.065,53.978c4.96,2.246,10.278-13.348,15.711-12.993c5.313,0.236,2.718,11.104,11.223,11.931
			c10.274,1.181,18.425-12.993,19.959-23.268c1.298-8.387,0.707-15.003-1.652-20.199c28.936-79.963,15.824-129.57,4.37-206.82
			c5.314-6.258,8.15-14.408,8.622-24.447c0.59-10.278-9.57-24.569-19.845-23.39c-8.387,0.944-5.433,8.032-10.747,8.269
			c-5.436,0.236-8.976-10.746-13.94-8.622c-9.448,4.252-18.897,13.465-20.077,23.743
			C1197.317,595.891,1207.945,604.631,1212.67,614.434L1212.67,614.434z M1238.065,804.008l6.022-171.149
			C1255.428,692.391,1257.788,742.116,1238.065,804.008L1238.065,804.008z"/>
	</g>
	<g>
		<path fill-rule="evenodd" clip-rule="evenodd" fill="#EFEEEE" d="M1187.156,308.871l46.303,13.465
			c8.977,2.598,17.717,7.678,17.009,17.009l-5.314,62.718c-0.712,9.331-7.56,16.655-17.009,17.009
			c-12.284,0.354-55.633-35.081-57.993-93.311C1169.798,316.429,1178.18,306.155,1187.156,308.871L1187.156,308.871z
			 M1243.144,163.235L1243.144,163.235c1.892,0,3.308,1.536,3.308,3.424v33.308c0,1.89-1.416,3.309-3.308,3.309l0,0
			c-1.771,0-3.309-1.418-3.309-3.309v-33.308C1239.835,164.771,1241.373,163.235,1243.144,163.235L1243.144,163.235z
			 M1243.144,207.528L1243.144,207.528c3.072,0,5.668,2.48,5.668,5.55v32.128c0,3.07-2.596,5.552-5.668,5.552l0,0
			c-3.072,0-5.55-2.482-5.55-5.552v-32.128C1237.594,210.008,1240.071,207.528,1243.144,207.528L1243.144,207.528z
			 M1224.364,143.627L1224.364,143.627c1.771,0,3.309,1.536,3.309,3.307v33.428c0,1.77-1.538,3.306-3.309,3.306l0,0
			c-1.892,0-3.308-1.536-3.308-3.306v-33.428C1221.057,145.164,1222.473,143.627,1224.364,143.627L1224.364,143.627z
			 M1224.364,187.921L1224.364,187.921c3.072,0,5.551,2.48,5.551,5.552v41.339c0,3.072-2.479,5.552-5.551,5.552l0,0
			c-3.072,0-5.55-2.48-5.55-5.552v-41.339C1218.814,190.401,1221.292,187.921,1224.364,187.921L1224.364,187.921z M1203.104,126.028
			L1203.104,126.028c1.77,0,3.308,1.418,3.308,3.306v45.475c0,1.89-1.538,3.309-3.308,3.309l0,0c-1.771,0-3.309-1.418-3.309-3.309
			v-45.475C1199.795,127.447,1201.333,126.028,1203.104,126.028L1203.104,126.028z M1203.104,182.132L1203.104,182.132
			c3.072,0,5.55,2.482,5.55,5.552v36.853c0,3.07-2.478,5.55-5.55,5.55l0,0c-3.072,0-5.551-2.48-5.551-5.55v-36.853
			C1197.553,184.614,1200.031,182.132,1203.104,182.132L1203.104,182.132z M1180.78,119.06L1180.78,119.06
			c1.888,0,3.308,1.416,3.308,3.306v45.475c0,1.89-1.42,3.308-3.308,3.308l0,0c-1.771,0-3.309-1.418-3.309-3.308v-45.475
			C1177.472,120.476,1179.01,119.06,1180.78,119.06L1180.78,119.06z M1180.78,175.164L1180.78,175.164c3.072,0,5.55,2.48,5.55,5.553
			v35.552c0,3.07-2.478,5.668-5.55,5.668l0,0c-3.072,0-5.551-2.598-5.551-5.668v-35.552
			C1175.229,177.644,1177.708,175.164,1180.78,175.164L1180.78,175.164z M1157.749,121.54L1157.749,121.54
			c1.77,0,3.308,1.536,3.308,3.306v40.515c0,1.772-1.538,3.306-3.308,3.306l0,0c-1.893,0-3.309-1.534-3.309-3.306v-40.515
			C1154.44,123.076,1155.856,121.54,1157.749,121.54L1157.749,121.54z M1157.749,173.038L1157.749,173.038
			c3.072,0,5.55,2.482,5.55,5.552v32.126c0,3.072-2.478,5.552-5.55,5.552l0,0c-3.072,0-5.669-2.48-5.669-5.552V178.59
			C1152.08,175.52,1154.677,173.038,1157.749,173.038L1157.749,173.038z M1163.299,219.457l71.576,34.019
			c6.853,3.306,13.818,6.26,13.818,13.819v34.016c0,7.561-6.494,15.829-13.818,13.703l-70.514-20.436
			c-7.202-2.126-13.583-6.258-13.701-13.819l-1.18-47.481C1149.244,225.717,1156.451,216.269,1163.299,219.457L1163.299,219.457z"/>
		<path fill-rule="evenodd" clip-rule="evenodd" fill="#DCDCDD" d="M1084.871,308.871l-46.299,13.465
			c-8.977,2.598-17.717,7.678-16.891,17.009l5.196,62.718c0.826,9.331,7.679,16.655,17.009,17.009
			c12.402,0.354,55.751-35.081,57.993-93.311C1102.234,316.429,1093.848,306.155,1084.871,308.871L1084.871,308.871z
			 M1028.888,163.235L1028.888,163.235c-1.774,0-3.308,1.536-3.308,3.424v33.308c0,1.89,1.533,3.309,3.308,3.309l0,0
			c1.771,0,3.305-1.418,3.305-3.309v-33.308C1032.192,164.771,1030.658,163.235,1028.888,163.235L1028.888,163.235z
			 M1028.888,207.528L1028.888,207.528c-3.072,0-5.554,2.48-5.554,5.55v32.128c0,3.07,2.481,5.552,5.554,5.552l0,0
			c3.068,0,5.551-2.482,5.551-5.552v-32.128C1034.438,210.008,1031.956,207.528,1028.888,207.528L1028.888,207.528z
			 M1047.785,143.627L1047.785,143.627c-1.893,0-3.427,1.536-3.427,3.307v33.428c0,1.77,1.534,3.306,3.427,3.306l0,0
			c1.77,0,3.308-1.536,3.308-3.306v-33.428C1051.093,145.164,1049.555,143.627,1047.785,143.627L1047.785,143.627z
			 M1047.785,187.921L1047.785,187.921c-3.072,0-5.669,2.48-5.669,5.552v41.339c0,3.072,2.597,5.552,5.669,5.552l0,0
			c3.072,0,5.55-2.48,5.55-5.552v-41.339C1053.335,190.401,1050.857,187.921,1047.785,187.921L1047.785,187.921z M1068.928,126.028
			L1068.928,126.028c-1.773,0-3.308,1.418-3.308,3.306v45.475c0,1.89,1.534,3.309,3.308,3.309l0,0c1.889,0,3.305-1.418,3.305-3.309
			v-45.475C1072.232,127.447,1070.816,126.028,1068.928,126.028L1068.928,126.028z M1068.928,182.132L1068.928,182.132
			c-3.072,0-5.554,2.482-5.554,5.552v36.853c0,3.07,2.481,5.55,5.554,5.55l0,0c3.068,0,5.669-2.48,5.669-5.55v-36.853
			C1074.597,184.614,1071.996,182.132,1068.928,182.132L1068.928,182.132z M1091.251,119.06L1091.251,119.06
			c-1.773,0-3.308,1.416-3.308,3.306v45.475c0,1.89,1.534,3.308,3.308,3.308l0,0c1.889,0,3.305-1.418,3.305-3.308v-45.475
			C1094.556,120.476,1093.14,119.06,1091.251,119.06L1091.251,119.06z M1091.251,175.164L1091.251,175.164
			c-3.072,0-5.554,2.48-5.554,5.553v35.552c0,3.07,2.481,5.668,5.554,5.668l0,0c3.068,0,5.551-2.598,5.551-5.668v-35.552
			C1096.802,177.644,1094.319,175.164,1091.251,175.164L1091.251,175.164z M1114.4,121.54L1114.4,121.54
			c-1.888,0-3.309,1.536-3.309,3.306v40.515c0,1.772,1.421,3.306,3.309,3.306l0,0c1.771,0,3.309-1.534,3.309-3.306v-40.515
			C1117.709,123.076,1116.171,121.54,1114.4,121.54L1114.4,121.54z M1114.4,173.038L1114.4,173.038
			c-3.072,0-5.668,2.482-5.668,5.552v32.126c0,3.072,2.596,5.552,5.668,5.552l0,0c3.072,0,5.551-2.48,5.551-5.552V178.59
			C1119.951,175.52,1117.473,173.038,1114.4,173.038L1114.4,173.038z M1108.851,219.457l-71.698,34.019
			c-6.849,3.306-13.818,6.26-13.818,13.819v34.016c0,7.561,6.498,15.829,13.818,13.703l70.514-20.436
			c7.324-2.126,13.587-6.258,13.823-13.819l1.062-47.481C1122.787,225.717,1115.698,216.269,1108.851,219.457L1108.851,219.457z"/>
	</g>
	<g>
		<g>
			<path fill-rule="evenodd" clip-rule="evenodd" fill="#EFEEEE" d="M369.569,795.235l22.887,3.816
				c6.676,1.225,11.169,7.626,10.081,14.305l0,0c-1.088,6.675-7.493,11.17-14.169,10.082l-22.887-3.952
				c-6.674-1.089-11.306-7.495-10.081-14.169l0,0C356.491,798.643,362.893,794.147,369.569,795.235L369.569,795.235z
				 M294.233,703.008L294.233,703.008c2.18-0.816,4.632,0.407,5.176,2.721l2.316,7.904c0.683,2.314-0.545,4.769-2.86,5.585l0,0
				c-2.18,0.681-4.497-0.544-5.177-2.722l-2.316-8.04C290.828,706.278,292.053,703.824,294.233,703.008L294.233,703.008z
				 M338.917,627.942L338.917,627.942c2.316-0.271,4.225,1.498,4.36,3.815l0.545,8.312c0.136,2.314-1.636,4.492-3.952,4.77l0,0
				c-2.315,0.132-4.358-1.502-4.493-3.816l-0.547-8.312C334.693,630.262,336.601,628.215,338.917,627.942L338.917,627.942z
				 M421.335,642.792L421.335,642.792c2.316,0,4.224,1.905,4.088,4.224l-0.408,8.313c-0.136,2.313-2.18,4.22-4.497,4.22l0,0
				c-2.315,0-4.087-1.906-4.087-4.22l0.411-8.313C416.978,644.697,419.02,642.792,421.335,642.792L421.335,642.792z
				 M380.058,624.948L380.058,624.948c2.316,0,4.088,1.905,4.088,4.22l-0.411,8.311c-0.136,2.319-2.178,4.225-4.494,4.225l0,0
				c-2.315,0-4.224-1.905-4.087-4.225l0.408-8.311C375.698,626.854,377.742,624.948,380.058,624.948L380.058,624.948z
				 M451.579,664.588L451.579,664.588c2.316,0,4.087,1.91,3.951,4.224l-0.408,8.313c0,2.45-2.044,4.36-4.36,4.36l0,0
				c-2.453,0-4.225-1.91-4.088-4.36l0.408-8.313C447.221,666.498,449.263,664.588,451.579,664.588L451.579,664.588z
				 M449.126,685.979L449.126,685.979c2.18,0.953,3.135,3.402,2.044,5.586l-6.677,13.756c-1.088,2.047-3.677,2.999-5.721,2.047l0,0
				c-2.18-0.953-3.133-3.407-2.044-5.449l6.676-13.897C444.358,685.979,446.946,685.022,449.126,685.979L449.126,685.979z
				 M420.927,662.682L420.927,662.682c2.588,0.546,4.224,3.137,3.543,5.586l-4.224,16.755c-0.681,2.59-3.269,4.225-5.857,3.68l0,0
				c-2.588-0.544-4.087-3.135-3.543-5.721l4.224-16.619C415.75,663.771,418.339,662.138,420.927,662.682L420.927,662.682z
				 M379.65,645.246L379.65,645.246c2.997,0,5.449,2.451,5.449,5.449v20.979c0,2.994-2.453,5.449-5.449,5.449l0,0
				c-2.997,0-5.449-2.455-5.449-5.449v-20.979C374.201,647.697,376.653,645.246,379.65,645.246L379.65,645.246z M340.961,648.514
				L340.961,648.514c2.997-0.272,5.721,1.909,5.993,4.904l2.18,20.843c0.408,2.999-1.772,5.721-4.769,5.993l0,0
				c-2.997,0.277-5.585-1.77-5.993-4.763l-2.18-20.984C335.92,651.648,337.962,648.922,340.961,648.514L340.961,648.514z
				 M300.637,721.536L300.637,721.536c2.724-1.365,5.993-0.412,7.357,2.179l12.941,24.25c1.361,2.586,0.273,5.857-2.315,7.218l0,0
				c-2.588,1.498-5.857,0.409-7.357-2.178l-12.806-24.113C297.093,726.164,298.048,722.898,300.637,721.536L300.637,721.536z
				 M437.685,709.682L437.685,709.682c2.725,1.224,3.949,4.359,2.725,7.087l-8.856,20.026c-1.225,2.723-4.357,3.946-7.082,2.723l0,0
				c-2.725-1.226-4.088-4.497-2.863-7.219l8.856-19.891C431.689,709.682,434.96,708.456,437.685,709.682L437.685,709.682z
				 M413.162,691.429L413.162,691.429c2.861,0.816,4.632,3.812,3.815,6.674l-7.493,26.429c-0.819,2.863-3.815,4.496-6.676,3.68l0,0
				c-2.86-0.816-4.632-3.816-3.815-6.675l7.495-26.296C407.305,692.382,410.302,690.607,413.162,691.429L413.162,691.429z
				 M320.254,758.182L320.254,758.182c3.677-1.91,8.31-0.544,10.217,3.131l16.347,30.652c1.908,3.68,0.544,8.176-3.133,10.217l0,0
				c-3.68,1.91-8.174,0.55-10.081-3.13l-16.485-30.652C315.214,764.72,316.575,760.088,320.254,758.182L320.254,758.182z
				 M379.105,681.348L379.105,681.348c4.222,0,7.493,3.267,7.629,7.49v23.161c0,4.083-3.407,7.491-7.493,7.491l0,0
				c-4.224,0-7.628-3.408-7.628-7.491v-23.161C371.613,684.614,375.018,681.348,379.105,681.348L379.105,681.348z M345.457,683.254
				L345.457,683.254c4.086-0.409,7.901,2.591,8.31,6.674l2.452,23.024c0.408,4.089-2.588,7.763-6.676,8.313l0,0
				c-4.086,0.408-7.765-2.591-8.31-6.679l-2.452-23.021C338.373,687.478,341.37,683.661,345.457,683.254L345.457,683.254z
				 M412.754,741.15l-54.629-13.484c-5.449-1.361-11.986,2.449-11.986,7.898l0.272,38.691c0,5.449,2.725,10.49,8.31,11.443
				l43.865,7.631c5.587,0.952,10.354-2.862,11.989-8.039l10.49-32.694C422.699,747.42,418.203,742.516,412.754,741.15
				L412.754,741.15z"/>
		</g>
		<g>
			<path fill-rule="evenodd" clip-rule="evenodd" fill="#DCDCDD" d="M195.604,795.235l-22.887,3.816
				c-6.676,1.225-11.172,7.626-10.081,14.305l0,0c1.089,6.675,7.493,11.17,14.166,10.082l22.887-3.952
				c6.676-1.089,11.309-7.495,10.081-14.169l0,0C208.682,798.643,202.278,794.147,195.604,795.235L195.604,795.235z
				 M270.938,703.008L270.938,703.008c-2.18-0.816-4.496,0.407-5.176,2.721l-2.316,7.904c-0.68,2.314,0.547,4.769,2.861,5.585l0,0
				c2.18,0.681,4.496-0.544,5.177-2.722l2.315-8.04C274.481,706.278,273.118,703.824,270.938,703.008L270.938,703.008z
				 M226.255,627.942L226.255,627.942c-2.316-0.271-4.224,1.498-4.36,3.815l-0.544,8.312c-0.136,2.314,1.633,4.492,3.949,4.77l0,0
				c2.316,0.132,4.36-1.502,4.497-3.816l0.544-8.312C230.477,630.262,228.708,628.215,226.255,627.942L226.255,627.942z
				 M143.835,642.792L143.835,642.792c-2.316,0-4.222,1.905-4.085,4.224l0.408,8.313c0.136,2.313,2.18,4.22,4.497,4.22l0,0
				c2.313,0,4.085-1.906,4.085-4.22l-0.408-8.313C148.195,644.697,146.151,642.792,143.835,642.792L143.835,642.792z
				 M185.112,624.948L185.112,624.948c-2.314,0-4.085,1.905-4.085,4.22l0.544,8.311c0,2.319,2.044,4.225,4.36,4.225l0,0
				c2.316,0,4.221-1.905,4.085-4.225l-0.408-8.311C189.472,626.854,187.428,624.948,185.112,624.948L185.112,624.948z
				 M113.592,664.588L113.592,664.588c-2.316,0-4.085,1.91-3.95,4.224l0.408,8.313c0.136,2.45,2.044,4.36,4.36,4.36l0,0
				c2.452,0,4.221-1.91,4.085-4.36l-0.408-8.313C117.952,666.498,115.907,664.588,113.592,664.588L113.592,664.588z
				 M116.044,685.979L116.044,685.979c-2.18,0.953-3.133,3.402-2.044,5.586l6.676,13.756c1.091,2.047,3.68,2.999,5.721,2.047l0,0
				c2.18-0.953,3.135-3.407,2.044-5.449l-6.674-13.897C120.812,685.979,118.224,685.022,116.044,685.979L116.044,685.979z
				 M144.243,662.682L144.243,662.682c-2.588,0.546-4.222,3.137-3.541,5.586l4.224,16.755c0.68,2.59,3.269,4.225,5.857,3.68l0,0
				c2.588-0.544,4.088-3.135,3.541-5.721l-4.221-16.619C149.42,663.771,146.832,662.138,144.243,662.682L144.243,662.682z
				 M185.522,645.246L185.522,645.246c-2.999,0-5.451,2.451-5.451,5.449v20.979c0,2.994,2.452,5.449,5.451,5.449l0,0
				c2.997,0,5.449-2.455,5.449-5.449v-20.979C190.972,647.697,188.52,645.246,185.522,645.246L185.522,645.246z M224.211,648.514
				L224.211,648.514c-2.997-0.272-5.721,1.909-5.993,4.904l-2.18,20.843c-0.41,2.999,1.77,5.721,4.767,5.993l0,0
				c2.999,0.277,5.587-1.77,5.995-4.763l2.18-20.984C229.388,651.648,227.208,648.922,224.211,648.514L224.211,648.514z
				 M264.536,721.536L264.536,721.536c-2.725-1.365-5.996-0.412-7.357,2.179l-12.941,24.25c-1.364,2.586-0.272,5.857,2.316,7.218
				l0,0c2.588,1.498,5.857,0.409,7.357-2.178l12.803-24.113C268.077,726.164,267.125,722.898,264.536,721.536L264.536,721.536z
				 M127.489,709.682L127.489,709.682c-2.725,1.224-3.952,4.359-2.725,7.087l8.854,20.026c1.227,2.723,4.36,3.946,7.084,2.723l0,0
				c2.724-1.226,4.088-4.497,2.86-7.219l-8.854-19.891C133.482,709.682,130.212,708.456,127.489,709.682L127.489,709.682z
				 M152.008,691.429L152.008,691.429c-2.861,0.816-4.63,3.812-3.813,6.674l7.493,26.429c0.816,2.863,3.813,4.496,6.676,3.68l0,0
				c2.861-0.816,4.63-3.816,3.813-6.675l-7.492-26.296C157.868,692.382,154.871,690.607,152.008,691.429L152.008,691.429z
				 M244.918,758.182L244.918,758.182c-3.68-1.91-8.31-0.544-10.217,3.131l-16.347,30.652c-1.908,3.68-0.547,8.176,3.132,10.217l0,0
				c3.678,1.91,8.173,0.55,10.217-3.13l16.347-30.652C249.959,764.72,248.596,760.088,244.918,758.182L244.918,758.182z
				 M186.067,681.348L186.067,681.348c-4.224,0-7.493,3.267-7.493,7.49l-0.136,23.161c0,4.083,3.405,7.491,7.629,7.491l0,0
				c4.085,0,7.492-3.408,7.492-7.491v-23.161C193.56,684.614,190.152,681.348,186.067,681.348L186.067,681.348z M219.715,683.254
				L219.715,683.254c-4.087-0.409-7.901,2.591-8.309,6.674l-2.452,23.024c-0.408,4.089,2.588,7.763,6.674,8.313l0,0
				c4.087,0.408,7.767-2.591,8.312-6.679l2.452-23.021C226.8,687.478,223.803,683.661,219.715,683.254L219.715,683.254z
				 M152.418,741.15l54.627-13.484c5.449-1.361,11.989,2.449,11.989,7.898l-0.272,38.691c0,5.449-2.725,10.49-8.312,11.443
				l-43.866,7.631c-5.585,0.952-10.354-2.862-11.989-8.039l-10.489-32.694C142.474,747.42,146.968,742.516,152.418,741.15
				L152.418,741.15z"/>
		</g>
	</g>
</g>
</svg>
