<svg width="1463" height="291" viewBox="0 0 1463 291" fill="none" xmlns="http://www.w3.org/2000/svg">
<path fill-rule="evenodd" clip-rule="evenodd" d="M0 290.064H1463V138.24C1463 138.24 1016.99 171.154 701.822 110.028C386.65 48.9013 0 98.4294 0 98.4294V290.064Z" fill="#060515"/>
<path fill-rule="evenodd" clip-rule="evenodd" d="M1013.34 156.212L1016.89 124.552L1000.9 120.163L1002.15 110.55L1018.46 113.267L1020.13 95.1902L1033.5 96.4441L1031.52 113.789L1048.03 116.088L1046.15 127.686L1030.06 125.388L1027.76 163.213L1013.34 156.212Z" fill="#060515"/>
<path fill-rule="evenodd" clip-rule="evenodd" d="M1082.31 148.271L1079.48 124.97L1067.26 124.447L1066.63 117.447L1078.75 116.611L1076.87 103.34L1086.8 102.086L1088.16 114.834L1100.38 113.685L1101.01 122.358L1089.1 123.402L1093.8 150.883L1082.31 148.271Z" fill="#060515"/>
<path fill-rule="evenodd" clip-rule="evenodd" d="M824.191 131.866L821.161 105.848L807.472 105.326L806.74 97.489L820.325 96.6531L818.235 81.8155L829.207 80.3526L830.775 94.5633L844.36 93.3094L845.091 102.922L831.82 104.072L837.045 134.687L824.191 131.866Z" fill="#060515"/>
<path fill-rule="evenodd" clip-rule="evenodd" d="M857.423 135.314L857.318 117.551L848.122 116.088L848.227 110.759L857.527 111.177L857.214 101.042L864.738 100.833V110.55L874.038 110.864L873.829 117.342L864.738 117.133L865.887 138.24L857.423 135.314Z" fill="#060515"/>
<path fill-rule="evenodd" clip-rule="evenodd" d="M913.748 142.837L910.822 129.776L903.821 130.194L903.089 126.224L909.986 125.074L908.105 117.655L913.644 116.297L915.211 123.507L922.108 122.149L922.944 127.06L916.256 128.313L920.436 143.673L913.748 142.837Z" fill="#060515"/>
<path fill-rule="evenodd" clip-rule="evenodd" d="M788.243 125.074V111.7L783.227 110.864C782.182 110.655 781.451 109.819 781.451 108.669C781.451 107.416 782.496 106.58 783.75 106.58L788.557 106.789L788.452 101.251C788.452 100.101 789.393 99.0563 790.542 99.0563H791.901C793.05 99.0563 794.095 99.9967 794.095 101.251V106.371L798.902 106.475C800.052 106.475 800.992 107.52 800.992 108.669V109.296C800.992 110.446 799.947 111.386 798.798 111.282L794.095 111.177L794.931 127.06L788.243 125.074Z" fill="#060515"/>
<path fill-rule="evenodd" clip-rule="evenodd" d="M276.507 28.7347L278.597 1.0449L257.175 0L255.92 28.8392L229.795 25.7045L228.437 40.96L254.144 46.8114L251.114 92.16H274.522L275.148 47.2294L300.855 49.8416L302.945 31.2424L276.507 28.7347Z" fill="#060515"/>
<path fill-rule="evenodd" clip-rule="evenodd" d="M364.392 86.831H382.052L377.454 48.1698L396.578 47.4383L396.264 33.6457L376.618 34.3771L375.364 13.8972L359.48 15.2555L361.466 36.5714L341.924 36.8849L342.447 48.2742L361.988 49.9461L364.392 86.831Z" fill="#060515"/>
<path fill-rule="evenodd" clip-rule="evenodd" d="M449.559 96.3395L454.053 60.813L436.079 55.6931L437.646 44.9306L455.934 48.1698L458.024 27.8987L473.072 29.4661L470.564 48.9012L489.06 51.7225L486.866 64.7837L468.892 61.9624L465.757 104.385L449.559 96.3395Z" fill="#060515"/>
<path fill-rule="evenodd" clip-rule="evenodd" d="M992.332 106.371L984.181 104.908C985.331 98.5339 977.911 91.8465 967.775 90.0702C957.534 88.2938 948.442 92.0555 947.293 98.4294L939.142 96.9665L930.05 149.316H985.017L992.332 106.371Z" fill="#060515"/>
<path fill-rule="evenodd" clip-rule="evenodd" d="M282.66 182.983C291.321 169.222 304.182 173.274 311.599 180.802C314.874 184.148 315.872 182.785 318.021 183.773C318.878 184.225 319.657 185.687 319.276 186.711C316.163 192.102 315.953 192.065 320.315 196.122L316.59 202.573L309.744 198.62C310.764 198.387 312.71 198.667 312.461 197.638C311.967 195.645 308.501 194.931 305.412 196.119L282.66 182.983ZM313.452 186.574C312.2 183.996 309.16 181.082 306.234 181.879C303.322 182.686 301.529 187.216 301.128 189.957C301.428 192.723 305.283 192.946 307.469 193.323C310.133 193.785 313.328 189.053 313.452 186.574Z" fill="#D0D0D0"/>
<path fill-rule="evenodd" clip-rule="evenodd" d="M317.602 203.157L322.82 206.17C324.517 202.976 325.232 199.509 324.672 196.171C324.126 192.989 321.725 190.064 319.672 187.888C319.259 188.493 318.152 189.645 318.686 190.144C320.07 191.47 320.666 192.446 319.829 194.408C320.171 195.238 322.385 194.872 321.975 195.584L317.602 203.157L317.602 203.157Z" fill="#D0D0D0"/>
<path fill-rule="evenodd" clip-rule="evenodd" d="M282.66 182.983C275.064 197.381 285.003 206.493 295.231 209.151C299.766 210.315 299.085 211.861 301.015 213.228C301.835 213.744 303.49 213.688 304.196 212.83C307.3 207.455 307.162 207.291 312.857 209.04L316.59 202.573L309.744 198.62C310.043 199.636 311.259 201.182 310.252 201.465C308.27 202.049 305.918 199.405 305.412 196.119L282.66 182.983L282.66 182.983ZM301.156 207.871C298.298 208.076 294.254 206.901 293.481 203.967C292.724 201.042 295.751 197.224 297.923 195.506C300.469 194.383 302.59 197.61 304.009 199.315C305.742 201.39 303.241 206.524 301.156 207.871Z" fill="#D0D0D0"/>
<path fill-rule="evenodd" clip-rule="evenodd" d="M317.602 203.157L322.82 206.17C320.893 209.252 318.248 211.605 315.077 212.788C312.058 213.891 308.325 213.274 305.404 212.6C305.722 211.941 306.166 210.405 306.864 210.619C308.705 211.154 309.849 211.182 311.129 209.476C312.019 209.357 312.81 211.458 313.22 210.746L317.602 203.157L317.602 203.157Z" fill="#D0D0D0"/>
<path fill-rule="evenodd" clip-rule="evenodd" d="M535.524 185.457C538.313 184.265 539.493 181.581 539.939 177.78C540.546 172.39 550.693 168.886 553.572 176.006C554.714 178.823 552.202 182.056 552.477 185.088C552.583 186.149 554.632 186.419 554.611 187.487C554.547 189.396 551.585 188.575 552.225 192.695C552.859 196.841 560.993 204.183 544.53 201.055L543.062 198.513L544.272 197.903C546.263 196.929 547.447 194.595 547.734 192.272C548.048 189.957 549.057 186.139 545.776 185.106C543.382 184.354 545.104 187.717 544.39 188.767C543.66 189.828 542.424 190.013 541.857 191.088C541.273 192.174 542.151 194 541.803 194.465C541.429 194.922 541.337 194.953 541.089 195.096L535.524 185.457V185.457Z" fill="#D0D0D0"/>
<path fill-rule="evenodd" clip-rule="evenodd" d="M555.6 188.744C556.914 189.151 556.819 190.13 557.914 190.159C559.231 190.191 560.27 189.018 561.466 188.459C563.141 188.462 565.502 190.113 565.206 190.438C562.862 191.791 568.959 203.611 571.5 207.668C573.796 208.786 574.477 209.317 574.547 210.773C574.605 211.751 572.567 211.08 571.707 211.532C570.852 211.96 570.138 214.001 569.45 213.341C567.643 211.699 569.309 209.858 568.477 208.379C565.453 202.95 559.545 192.144 558.044 192.9C556.395 193.171 555.234 196.306 554.918 195.872C553.938 194.479 553.229 187.801 555.6 188.744Z" fill="#D0D0D0"/>
<path fill-rule="evenodd" clip-rule="evenodd" d="M549.827 195.135C550.719 195.193 551.359 196.188 551.277 197.38C551.221 198.579 550.447 199.487 549.565 199.446C548.69 199.38 548.04 198.368 548.106 197.186C548.188 195.994 548.962 195.085 549.827 195.135Z" fill="#D0D0D0"/>
<path fill-rule="evenodd" clip-rule="evenodd" d="M535.524 185.457C533.114 187.267 530.183 186.956 526.685 185.432C521.697 183.272 513.588 190.309 518.315 196.361C520.2 198.75 524.241 198.2 526.728 199.955C527.61 200.567 526.803 202.486 527.756 202.992C529.441 203.891 530.21 200.916 533.458 203.53C536.716 206.161 539.024 216.867 544.53 201.055L543.062 198.513L541.928 199.256C540.106 200.484 537.494 200.342 535.322 199.439C533.176 198.543 529.349 197.518 530.112 194.15C530.656 191.701 532.692 194.883 533.975 194.781C535.258 194.678 536.02 193.71 537.252 193.747C538.484 193.784 539.626 195.458 540.202 195.389C540.769 195.303 540.859 195.23 541.09 195.096L535.524 185.457L535.524 185.457Z" fill="#D0D0D0"/>
<path fill-rule="evenodd" clip-rule="evenodd" d="M528.349 204.477C528.045 205.819 528.924 206.236 528.401 207.198C527.787 208.345 526.235 208.668 525.17 209.415C524.335 210.866 524.584 213.737 524.997 213.652C527.358 212.29 534.545 223.48 536.788 227.709C536.608 230.256 536.728 231.111 537.937 231.91C538.771 232.44 539.192 230.349 540.032 229.82C540.828 229.294 542.953 229.696 542.71 228.779C542.208 226.385 539.78 226.906 538.915 225.447C535.726 220.113 529.322 209.594 530.727 208.672C531.785 207.379 535.081 207.941 534.863 207.451C534.147 205.905 528.718 201.953 528.349 204.477Z" fill="#D0D0D0"/>
<path fill-rule="evenodd" clip-rule="evenodd" d="M536.754 202.683C536.375 203.474 536.917 204.526 537.973 205.06C539.056 205.602 540.23 205.386 540.619 204.611C541.015 203.811 540.464 202.742 539.391 202.218C538.334 201.683 537.16 201.899 536.754 202.683Z" fill="#D0D0D0"/>
<path fill-rule="evenodd" clip-rule="evenodd" d="M379.967 269.749L381.787 272.743C382.305 273.628 382.016 274.773 381.144 275.307C380.274 275.84 379.128 275.551 378.594 274.68L376.79 271.672C376.256 270.801 376.533 269.64 377.417 269.122C378.288 268.589 379.433 268.878 379.967 269.749ZM383.09 252.038C383.398 252.207 383.5 252.608 383.289 252.898L382.613 253.943C382.416 254.249 382.014 254.35 381.692 254.166C381.399 253.984 381.311 253.598 381.493 253.305L382.185 252.248C382.38 251.971 382.782 251.869 383.09 252.038ZM396.083 249.749C396.342 249.987 396.328 250.38 396.076 250.624L395.179 251.506C394.928 251.749 394.504 251.761 394.244 251.524C394 251.272 393.986 250.877 394.237 250.634L395.134 249.751C395.401 249.494 395.823 249.511 396.083 249.749ZM402.509 260.641C402.738 260.906 402.708 261.312 402.429 261.525L401.438 262.298C401.16 262.511 400.74 262.465 400.512 262.2C400.284 261.935 400.327 261.544 400.592 261.316L401.583 260.544C401.862 260.33 402.281 260.376 402.509 260.641ZM400.481 254.16C400.709 254.425 400.666 254.815 400.401 255.044L399.41 255.816C399.132 256.029 398.712 255.983 398.484 255.718C398.256 255.454 398.285 255.047 398.564 254.834L399.555 254.062C399.833 253.849 400.253 253.895 400.481 254.16ZM402.998 266.25C403.226 266.515 403.182 266.906 402.904 267.118L401.913 267.891C401.633 268.133 401.213 268.087 400.984 267.822C400.743 267.542 400.786 267.151 401.08 266.925L402.071 266.152C402.35 265.939 402.77 265.985 402.998 266.25ZM400.309 268.078C400.415 268.421 400.229 268.772 399.872 268.863L397.64 269.455C397.298 269.532 396.934 269.33 396.841 269.002C396.735 268.659 396.922 268.308 397.263 268.231L399.511 267.625C399.839 267.533 400.204 267.734 400.309 268.078ZM400.194 262.555C400.387 262.905 400.251 263.348 399.904 263.511L397.571 264.68C397.208 264.858 396.765 264.723 396.573 264.373C396.38 264.023 396.528 263.596 396.878 263.404L399.195 262.248C399.559 262.07 400.001 262.206 400.194 262.555ZM398.119 256.114C398.414 256.457 398.376 256.979 398.033 257.275L395.633 259.343C395.29 259.639 394.768 259.6 394.472 259.257C394.177 258.914 394.216 258.392 394.558 258.097L396.958 256.028C397.301 255.733 397.823 255.772 398.119 256.114ZM393.931 252.011C394.257 252.327 394.276 252.853 393.961 253.18L391.791 255.484C391.488 255.827 390.962 255.846 390.635 255.529C390.308 255.214 390.287 254.716 390.589 254.374L392.775 252.056C393.075 251.743 393.588 251.708 393.931 252.011ZM381.602 254.597C382.027 254.774 382.24 255.242 382.078 255.654L380.58 259.525C380.418 259.936 379.937 260.134 379.526 259.972C379.099 259.823 378.901 259.342 379.05 258.915L380.545 255.073C380.723 254.648 381.191 254.435 381.602 254.597ZM396.47 269.106C396.598 269.539 396.36 269.988 395.927 270.117L392.763 271.078C392.331 271.206 391.883 270.969 391.754 270.536C391.625 270.104 391.865 269.625 392.297 269.497L395.446 268.549C395.878 268.42 396.341 268.674 396.47 269.106ZM396.14 264.501C396.329 264.909 396.16 265.407 395.752 265.596L391.99 267.344C391.582 267.533 391.1 267.351 390.911 266.943C390.723 266.536 390.891 266.037 391.299 265.849L395.046 264.114C395.453 263.925 395.952 264.093 396.14 264.501ZM379.344 260.454C379.925 260.687 380.225 261.351 379.993 261.932L378.098 266.824C377.865 267.405 377.216 267.692 376.62 267.473C376.039 267.24 375.752 266.592 375.985 266.011L377.866 261.103C378.099 260.522 378.763 260.221 379.344 260.454ZM393.935 259.611C394.352 260.094 394.3 260.791 393.831 261.223L391.181 263.506C390.714 263.909 389.988 263.855 389.585 263.387C389.169 262.904 389.223 262.179 389.69 261.776L392.34 259.493C392.823 259.076 393.532 259.144 393.935 259.611ZM390.4 255.95C390.85 256.377 390.882 257.109 390.456 257.559L388.064 260.109C387.636 260.559 386.92 260.579 386.454 260.165C386.005 259.738 385.985 259.021 386.399 258.556L388.791 256.006C389.218 255.556 389.95 255.523 390.4 255.95ZM390.412 269.357L386.568 261.778C386.187 261.02 385.106 260.648 384.483 261.185L380.084 265.031C379.461 265.568 379.153 266.377 379.594 267.11L383.046 272.88C383.488 273.613 384.394 273.783 385.148 273.459L389.922 271.436C390.675 271.112 390.793 270.115 390.412 269.357Z" fill="#D0D0D0"/>
<path fill-rule="evenodd" clip-rule="evenodd" d="M1047.2 213.649L1046.86 210.161C1046.78 209.14 1047.54 208.234 1048.56 208.132C1049.57 208.029 1050.48 208.788 1050.58 209.804L1050.9 213.297C1051 214.314 1050.25 215.24 1049.22 215.322C1048.21 215.424 1047.3 214.665 1047.2 213.649ZM1036.69 228.243C1036.49 227.957 1036.57 227.552 1036.89 227.382L1037.95 226.735C1038.26 226.545 1038.67 226.628 1038.88 226.934C1039.06 227.225 1038.97 227.611 1038.68 227.796L1037.6 228.448C1037.3 228.612 1036.9 228.529 1036.69 228.243ZM1023.99 224.659C1023.86 224.332 1024.05 223.984 1024.38 223.874L1025.57 223.47C1025.9 223.359 1026.29 223.533 1026.42 223.86C1026.53 224.192 1026.37 224.554 1026.04 224.664L1024.85 225.069C1024.5 225.185 1024.13 224.986 1023.99 224.659ZM1022.94 212.056C1022.85 211.718 1023.05 211.366 1023.4 211.295L1024.62 211.029C1024.97 210.959 1025.33 211.182 1025.42 211.52C1025.51 211.858 1025.3 212.191 1024.96 212.282L1023.73 212.547C1023.39 212.617 1023.03 212.394 1022.94 212.056ZM1021.95 218.775C1021.86 218.437 1022.07 218.104 1022.41 218.014L1023.63 217.749C1023.98 217.678 1024.34 217.901 1024.43 218.239C1024.52 218.577 1024.31 218.93 1023.97 219L1022.74 219.266C1022.4 219.336 1022.04 219.113 1021.95 218.775ZM1024.94 206.793C1024.85 206.455 1025.06 206.122 1025.4 206.051L1026.63 205.786C1026.98 205.69 1027.34 205.913 1027.43 206.251C1027.53 206.609 1027.32 206.942 1026.96 207.018L1025.73 207.283C1025.39 207.354 1025.03 207.13 1024.94 206.793ZM1028.15 206.314C1028.21 205.959 1028.53 205.724 1028.89 205.798L1031.16 206.234C1031.5 206.313 1031.74 206.653 1031.68 206.989C1031.62 207.344 1031.3 207.579 1030.96 207.5L1028.67 207.069C1028.34 207.01 1028.1 206.67 1028.15 206.314ZM1025.86 211.338C1025.84 210.939 1026.15 210.6 1026.53 210.603L1029.14 210.564C1029.55 210.563 1029.89 210.876 1029.91 211.275C1029.93 211.674 1029.61 211.994 1029.21 212.015L1026.62 212.049C1026.22 212.051 1025.88 211.737 1025.86 211.338ZM1024.93 218.041C1024.81 217.604 1025.07 217.15 1025.51 217.033L1028.57 216.213C1029.01 216.096 1029.46 216.358 1029.58 216.795C1029.69 217.232 1029.43 217.686 1029 217.803L1025.93 218.623C1025.5 218.74 1025.04 218.478 1024.93 218.041ZM1026.92 223.557C1026.76 223.13 1026.97 222.648 1027.4 222.491L1030.35 221.358C1030.77 221.182 1031.26 221.393 1031.41 221.82C1031.57 222.246 1031.37 222.704 1030.95 222.88L1027.98 224.018C1027.57 224.17 1027.09 223.978 1026.92 223.557ZM1039.14 226.585C1038.84 226.241 1038.85 225.727 1039.17 225.427L1042.21 222.591C1042.53 222.291 1043.05 222.322 1043.35 222.647C1043.67 222.966 1043.64 223.485 1043.32 223.805L1040.3 226.615C1039.96 226.921 1039.44 226.909 1039.14 226.585ZM1032.06 207.057C1032.13 206.611 1032.54 206.31 1032.99 206.382L1036.25 206.891C1036.7 206.964 1037 207.373 1036.93 207.818C1036.85 208.263 1036.43 208.59 1035.99 208.518L1032.74 208.003C1032.29 207.931 1031.99 207.502 1032.06 207.057ZM1030.35 211.347C1030.36 210.898 1030.73 210.523 1031.18 210.53L1035.33 210.59C1035.78 210.598 1036.13 210.971 1036.12 211.42C1036.12 211.869 1035.75 212.245 1035.3 212.237L1031.17 212.172C1030.72 212.165 1030.35 211.797 1030.35 211.347ZM1043.72 222.291C1043.3 221.829 1043.32 221.1 1043.78 220.678L1047.61 217.096C1048.07 216.673 1048.78 216.697 1049.23 217.153C1049.65 217.615 1049.63 218.324 1049.16 218.746L1045.34 222.349C1044.87 222.771 1044.14 222.753 1043.72 222.291ZM1030.21 216.709C1030.05 216.094 1030.4 215.489 1031.01 215.304L1034.39 214.399C1034.98 214.239 1035.61 214.603 1035.77 215.199C1035.94 215.815 1035.57 216.445 1034.98 216.604L1031.6 217.51C1030.98 217.675 1030.37 217.306 1030.21 216.709ZM1031.81 221.543C1031.59 220.963 1031.88 220.289 1032.46 220.07L1035.72 218.813C1036.3 218.593 1036.95 218.887 1037.19 219.461C1037.41 220.042 1037.12 220.695 1036.54 220.935L1033.28 222.192C1032.7 222.411 1032.03 222.123 1031.81 221.543ZM1037.62 209.464L1037.79 217.959C1037.81 218.807 1038.62 219.612 1039.41 219.399L1045.05 217.847C1045.84 217.634 1046.47 217.04 1046.39 216.188L1045.79 209.491C1045.71 208.639 1044.97 208.092 1044.15 208.056L1038.97 207.804C1038.15 207.768 1037.61 208.615 1037.62 209.464Z" fill="#D0D0D0"/>
<path fill-rule="evenodd" clip-rule="evenodd" d="M804.374 235.221L815.655 206.558C818.603 205.873 822.319 201.832 818.686 198.47C818.033 197.859 816.377 199.922 815.549 199.57C814.735 199.244 815.716 197.746 814.435 197.155C812.898 196.414 810.876 198.107 810.092 199.573C809.445 200.768 809.185 201.799 809.277 202.712C800.526 213.195 799.935 221.4 797.618 233.686C796.458 234.339 795.584 235.414 794.977 236.903C794.34 238.422 795.163 241.135 796.826 241.52C798.182 241.837 798.098 240.606 798.938 240.861C799.797 241.123 799.766 242.974 800.651 242.926C802.348 242.801 804.309 241.929 805.038 240.442C805.781 238.861 804.589 236.96 804.374 235.221ZM810.483 205.22L800.46 230.72C801.854 221.114 804.126 213.48 810.483 205.22Z" fill="#D0D0D0"/>
<path fill-rule="evenodd" clip-rule="evenodd" d="M947.624 234.121C948.001 235.471 947.219 236.89 945.87 237.267L915.593 245.723C914.244 246.1 912.84 245.292 912.463 243.942L947.624 234.121Z" fill="#D0D0D0"/>
<path fill-rule="evenodd" clip-rule="evenodd" d="M945.87 237.267C945.989 239.267 946.186 241.544 946.832 243.443C947.884 246.545 950.395 245.612 951.317 246.764C952.261 247.91 950.889 249.285 949.271 249.114C944.199 247.828 943.316 243.755 942.998 238.069L945.87 237.267V237.267Z" fill="#D0D0D0"/>
<path fill-rule="evenodd" clip-rule="evenodd" d="M938.649 239.284C938.769 241.284 938.966 243.561 939.633 245.454C940.684 248.556 943.174 247.629 944.117 248.775C945.04 249.926 943.69 251.296 942.05 251.131C936.979 249.845 936.095 245.772 935.799 240.08L938.649 239.284V239.284Z" fill="#D0D0D0"/>
<path fill-rule="evenodd" clip-rule="evenodd" d="M924.85 243.138C924.969 245.138 924.954 246.735 925.593 248.613C926.672 251.73 929.156 250.782 930.099 251.927C931.028 253.101 929.672 254.449 928.038 254.305C922.967 253.019 922.296 249.626 921.979 243.94L924.85 243.138V243.138Z" fill="#D0D0D0"/>
<path fill-rule="evenodd" clip-rule="evenodd" d="M931.685 241.229C931.804 243.229 932.002 245.506 932.648 247.405C933.699 250.507 936.21 249.574 937.132 250.726C938.076 251.871 936.705 253.247 935.065 253.082C929.993 251.796 929.131 247.717 928.814 242.031L931.685 241.229V241.229Z" fill="#D0D0D0"/>
<path fill-rule="evenodd" clip-rule="evenodd" d="M918.315 244.963C918.434 246.963 918.419 248.561 919.058 250.438C920.137 253.555 922.621 252.607 923.564 253.753C924.493 254.926 923.116 256.281 921.503 256.13C916.431 254.844 915.761 251.451 915.443 245.765L918.315 244.963V244.963Z" fill="#D0D0D0"/>
<path fill-rule="evenodd" clip-rule="evenodd" d="M951.015 235.761C952.462 239.284 955.547 244.543 953.823 248.211C954.387 249.486 955.446 252.286 956.189 251.224C958.127 248.488 957.84 245.473 957.113 242.212C956.361 238.772 954.435 236.261 953.388 232.511L948.438 233.894C948.761 235.051 949.851 235.809 951.015 235.761Z" fill="#D0D0D0"/>
<path fill-rule="evenodd" clip-rule="evenodd" d="M958.509 231.081L958.874 232.388C959.143 233.352 958.572 234.366 957.608 234.636C956.643 234.905 955.629 234.334 955.36 233.37L954.995 232.062L958.509 231.081Z" fill="#D0D0D0"/>
<path fill-rule="evenodd" clip-rule="evenodd" d="M911.584 244.187L911.949 245.494C912.219 246.458 911.647 247.472 910.683 247.742C909.697 248.017 908.683 247.446 908.414 246.482L908.049 245.174L911.584 244.187Z" fill="#D0D0D0"/>
<path fill-rule="evenodd" clip-rule="evenodd" d="M907.106 245.438L907.375 246.402C907.608 247.237 907.114 248.115 906.3 248.342C905.465 248.576 904.587 248.081 904.354 247.246L904.084 246.282L907.106 245.438Z" fill="#D0D0D0"/>
<path fill-rule="evenodd" clip-rule="evenodd" d="M947.624 234.121C947.247 232.771 945.849 231.984 944.499 232.361L914.223 240.817C912.873 241.194 912.085 242.591 912.463 243.942L947.624 234.121Z" fill="#D0D0D0"/>
<path fill-rule="evenodd" clip-rule="evenodd" d="M944.499 232.361C943.566 230.589 942.554 228.538 942.122 226.58C941.414 223.382 944.045 222.879 944.237 221.416C944.451 219.947 942.565 219.481 941.263 220.445C937.593 224.173 938.953 228.135 941.628 233.162L944.499 232.361Z" fill="#D0D0D0"/>
<path fill-rule="evenodd" clip-rule="evenodd" d="M937.278 234.377C936.345 232.606 935.333 230.555 934.923 228.591C934.215 225.393 936.824 224.895 937.038 223.427C937.23 221.964 935.365 221.492 934.043 222.462C930.372 226.19 931.733 230.152 934.429 235.173L937.278 234.377Z" fill="#D0D0D0"/>
<path fill-rule="evenodd" clip-rule="evenodd" d="M923.479 238.231C922.546 236.46 921.704 235.101 921.273 233.143C920.586 229.939 923.201 229.463 923.409 227.973C923.601 226.51 921.743 226.059 920.419 227.029C916.749 230.757 917.934 234.006 920.608 239.034L923.479 238.232L923.479 238.231Z" fill="#D0D0D0"/>
<path fill-rule="evenodd" clip-rule="evenodd" d="M930.314 236.322C929.381 234.551 928.369 232.5 927.938 230.542C927.229 227.344 929.86 226.84 930.053 225.378C930.266 223.909 928.38 223.443 927.057 224.412C923.387 228.141 924.769 232.097 927.443 237.124L930.314 236.322Z" fill="#D0D0D0"/>
<path fill-rule="evenodd" clip-rule="evenodd" d="M916.944 240.057C916.011 238.285 915.169 236.926 914.738 234.968C914.051 231.764 916.666 231.288 916.874 229.798C917.066 228.335 915.186 227.89 913.884 228.854C910.214 232.582 911.399 235.831 914.073 240.859L916.944 240.057L916.944 240.057Z" fill="#D0D0D0"/>
<path fill-rule="evenodd" clip-rule="evenodd" d="M949.681 230.983C949.092 227.22 949 221.102 945.63 218.879C945.452 217.496 944.901 214.532 946.093 215.077C949.163 216.391 950.479 219.118 951.548 222.284C952.692 225.637 952.346 228.783 953.388 232.511L948.438 233.893C948.115 232.737 948.66 231.545 949.681 230.983Z" fill="#D0D0D0"/>
<path fill-rule="evenodd" clip-rule="evenodd" d="M958.509 231.081L958.15 229.795C957.874 228.81 956.86 228.238 955.896 228.508C954.932 228.777 954.36 229.791 954.636 230.776L954.995 232.062L958.509 231.081Z" fill="#D0D0D0"/>
<path fill-rule="evenodd" clip-rule="evenodd" d="M911.584 244.187L911.225 242.901C910.95 241.916 909.936 241.345 908.971 241.614C907.986 241.889 907.414 242.903 907.69 243.888L908.049 245.174L911.584 244.187Z" fill="#D0D0D0"/>
<path fill-rule="evenodd" clip-rule="evenodd" d="M907.106 245.438L906.837 244.474C906.609 243.659 905.732 243.165 904.918 243.393C904.082 243.626 903.588 244.503 903.815 245.317L904.085 246.282L907.106 245.438Z" fill="#D0D0D0"/>
</svg>
